<svg width="22" height="21" viewBox="0 0 22 21" fill="none" xmlns="http://www.w3.org/2000/svg">
<path d="M2.1388 5.66352C1.83334 6.68032 1.83334 8.08304 1.83334 10.2478C1.83334 13.3226 1.83334 14.86 2.70868 15.9377C2.99138 16.2858 3.33356 16.5919 3.72266 16.8448C4.92746 17.6278 6.64609 17.6278 10.0833 17.6278H11.9167C15.3539 17.6278 17.0726 17.6278 18.2774 16.8448C18.6665 16.5919 19.0086 16.2858 19.2913 15.9377C20.1667 14.86 20.1667 13.3226 20.1667 10.2478C20.1667 8.07583 20.1667 6.67098 19.8582 5.65337L17.9306 7.37765C16.4344 8.71613 15.2618 9.76507 14.2239 10.4735C13.1616 11.1985 12.1599 11.6245 10.9999 11.6245C9.83989 11.6245 8.83821 11.1985 7.77586 10.4735C6.73795 9.76507 5.56538 8.71612 4.06913 7.37764L2.27688 5.77437L2.1388 5.66352Z" fill="white"/>
<path d="M2.75001 4.50775L2.84978 4.5816L3.22289 4.88114L5.00421 6.47462C6.54573 7.85359 7.654 8.84315 8.60991 9.49557C9.54995 10.1372 10.2614 10.3945 10.9999 10.3945C11.7384 10.3945 12.4498 10.1372 13.3899 9.49557C14.3458 8.84315 15.454 7.85359 16.9956 6.47462L19.1111 4.58213L19.2263 4.4797C18.9436 4.13163 18.6665 3.90366 18.2774 3.65077C17.0726 2.86774 15.3539 2.86774 11.9167 2.86774H10.0833C6.64609 2.86774 4.92746 2.86774 3.72266 3.65077C3.33356 3.90366 3.03271 4.15968 2.75001 4.50775Z" fill="white"/>
</svg>
