<svg width="38" height="43" viewBox="0 0 38 43" fill="none" xmlns="http://www.w3.org/2000/svg">
<path d="M10.1111 8.82955L10.1111 27.6151M10.1111 8.82955H20.7778C22.6638 8.82955 24.4725 9.48928 25.8061 10.6636C27.1397 11.8379 27.8889 13.4307 27.8889 15.0914C27.8889 16.7522 27.1397 18.3449 25.8061 19.5192C24.4725 20.6935 22.6638 21.3533 20.7778 21.3533H10.1111L10.1111 8.82955ZM10.1111 27.6151C8.22513 27.6151 6.41639 28.2749 5.08279 29.4492C3.7492 30.6235 3 32.2163 3 33.877M10.1111 27.6151H24.3333C27.1623 27.6151 29.8754 26.2957 31.8758 23.947C33.8762 21.5984 35 18.4129 35 15.0914C35 11.7699 33.8762 8.58446 31.8758 6.2358C29.8754 3.88715 27.1623 2.56769 24.3333 2.56769H3L3 33.877M3 33.877C3 35.5378 3.7492 37.1305 5.08279 38.3048C6.41639 39.4791 8.22513 40.1389 10.1111 40.1389L10.1111 30.7461" stroke="white" stroke-width="5" stroke-linecap="square" stroke-linejoin="round"/>
</svg>
